<?xml version="1.0" encoding="UTF-8"?>
<svg id="Camada_2" data-name="Camada 2" xmlns="http://www.w3.org/2000/svg" viewBox="0 0 804.53 256">
  <defs>
    <style>
      .cls-1 {
        fill: #fff;
      }

      .cls-2 {
        fill: #222120;
      }
    </style>
  </defs>
  <g id="TO_EXPORT">
    <g>
      <rect class="cls-1" width="804.53" height="256"/>
      <g id="LOGO_COMPLETE">
        <g>
          <g>
            <path class="cls-2" d="M460.29,0h16.29l13.88,72.09h-13.53l-2.67-15.84h-11.39l-2.76,15.84h-13.79L460.29,0ZM472.84,47.17l-4.36-29.01-4.27,29.01h8.63Z"/>
            <path class="cls-2" d="M493.04,20.65h12.99l4.72,34.62,4.45-34.62h12.9l-10.5,51.44h-14.24l-10.32-51.44Z"/>
            <path class="cls-2" d="M533.62,2.14h13.53v10.06h-13.53V2.14ZM533.71,20.65h13.44v51.44h-13.44V20.65Z"/>
            <path class="cls-2" d="M557.11,0h13.35v72.09h-13.35V0Z"/>
            <path class="cls-2" d="M578.65,60.52c0-12.82,11.04-16.73,21-20.38v-4.81c0-3.38-.62-5.61-3.47-5.61s-3.56,2.05-3.74,4.81l-.27,3.56-12.64-.53c.44-12.19,6.14-17.8,17.8-17.8,10.41,0,15.22,6.32,15.22,15.66v23.94c0,6.05.53,10.06.89,12.73h-12.02c-.36-2.58-.98-6.32-1.16-7.39-1.25,4.27-4.54,8.28-9.97,8.28-7.48,0-11.66-6.41-11.66-12.46ZM599.65,60.52v-14.15c-4.98,2.85-8.63,5.96-8.63,11.3,0,3.65,1.51,5.79,4.09,5.79,1.96,0,3.65-1.6,4.54-2.94Z"/>
          </g>
          <g>
            <path class="cls-2" d="M267.55,39.19h37.81l25.38,148.07,23.8-148.07h39.4l-40.72,214.17h-44.95l-40.72-214.17Z"/>
            <path class="cls-2" d="M407.68,218.98c0-38.07,32.79-49.71,62.4-60.55v-14.28c0-10.05-1.85-16.66-10.31-16.66s-10.58,6.08-11.11,14.28l-.79,10.58-37.55-1.59c1.32-36.22,18.24-52.88,52.88-52.88,30.94,0,45.21,18.77,45.21,46.53v71.12c0,17.98,1.59,29.88,2.64,37.81h-35.69c-1.06-7.67-2.91-18.77-3.44-21.95-3.7,12.69-13.48,24.59-29.61,24.59-22.21,0-34.64-19.04-34.64-37.02ZM470.08,218.98v-42.04c-14.81,8.46-25.65,17.72-25.65,33.58,0,10.84,4.5,17.19,12.16,17.19,5.82,0,10.84-4.76,13.49-8.73Z"/>
            <path class="cls-2" d="M533.27,221.1v-120.57h39.92v115.02c0,7.93,2.38,12.69,9.78,12.69,4.23,0,8.99-2.38,14.01-5.82v-121.89h39.92v152.83h-39.92v-14.28c-10.84,10.05-23,16.92-36.49,16.92-18.51,0-27.23-15.6-27.23-34.9Z"/>
            <path class="cls-2" d="M666.26,39.19h39.66v214.17h-39.66V39.19Z"/>
            <path class="cls-2" d="M739.23,213.43v-86.72h-15.07v-26.18h15.07v-46.01h40.45v46.01h22.21v26.18h-22.21v82.76c0,9.52,5.02,13.48,13.48,13.48,4.23,0,8.2-.26,11.37-1.06v31.2c-5.29.79-14.81,2.12-24.59,2.12-32.26,0-40.72-15.33-40.72-41.78Z"/>
          </g>
        </g>
        <path class="cls-2" d="M247.86,157.99l-31.82-10.11c5.99-27.2-.75-54.78-16.68-75.88l24.69-22.52c1.72-1.57,1.84-4.24.27-5.96l-5.76-6.31c-1.57-1.72-4.24-1.84-5.96-.27l-24.67,22.51c-9.6-8.79-21.21-15.69-34.41-19.88-13.22-4.21-26.71-5.28-39.64-3.64l-7.16-32.62c-.5-2.27-2.75-3.71-5.02-3.21l-8.35,1.83c-2.27.5-3.71,2.75-3.21,5.02l7.16,32.64c-25.18,8.04-46.6,26.67-57.41,52.34l-31.82-10.11c-2.22-.7-4.59.52-5.29,2.74L.2,92.71c-.7,2.22.52,4.59,2.74,5.29l31.82,10.11c-5.99,27.2.75,54.78,16.68,75.88l-24.69,22.52c-1.72,1.57-1.84,4.24-.27,5.96l5.76,6.31c1.57,1.72,4.24,1.84,5.96.27l24.67-22.51c9.6,8.79,21.21,15.69,34.41,19.88,9.32,2.97,18.77,4.37,28.07,4.37,3.89,0,7.76-.26,11.57-.74l7.16,32.62c.5,2.27,2.75,3.71,5.02,3.21l8.35-1.83c2.27-.5,3.71-2.75,3.21-5.02l-7.16-32.65c25.18-8.04,46.6-26.67,57.4-52.34l31.83,10.11c2.22.7,4.59-.52,5.29-2.74l2.59-8.14c.7-2.22-.52-4.59-2.74-5.29ZM193.82,92.6c8.14,15.73,10.57,33.37,7.12,50.49l-8.55-2.72c-2.05-.65-4.23.35-5.1,2.26l-33.25-10.56c1.01-7.04-.64-14.03-4.33-19.76l25.77-23.51c1.59,1.37,3.99,1.36,5.58-.09l6.64-6.06c2.27,3.13,4.32,6.45,6.13,9.95ZM125.45,50.96c7.72,0,15.57,1.17,23.3,3.63,10.31,3.28,19.61,8.59,27.5,15.52l-6.64,6.06c-1.59,1.45-1.81,3.84-.6,5.55l-25.77,23.51c-2.64-2.07-5.69-3.72-9.08-4.8-3.4-1.08-6.84-1.5-10.21-1.33l-7.48-34.07c1.98-.7,3.18-2.77,2.72-4.88l-1.92-8.75c2.7-.29,5.43-.45,8.17-.45ZM100.7,55.07l1.92,8.73c.46,2.1,2.42,3.49,4.51,3.29l7.48,34.07c-6.32,2.55-11.7,7.3-14.94,13.64l-33.25-10.56c.39-2.06-.81-4.14-2.87-4.79l-8.54-2.71c8.94-20.16,25.83-34.91,45.7-41.66ZM56.98,163.4c-8.14-15.73-10.57-33.37-7.12-50.49l8.55,2.72c2.05.65,4.23-.35,5.1-2.26l33.25,10.56c-1.01,7.04.64,14.03,4.33,19.76l-25.77,23.51c-1.59-1.37-3.99-1.36-5.58.09l-6.64,6.06c-2.27-3.13-4.32-6.45-6.13-9.95ZM125.35,205.04c-7.72,0-15.57-1.17-23.3-3.63-10.31-3.28-19.61-8.59-27.5-15.52l6.64-6.06c1.59-1.45,1.81-3.84.6-5.55l25.77-23.51c2.64,2.07,5.69,3.72,9.08,4.8,3.4,1.08,6.84,1.5,10.21,1.33l7.48,34.07c-1.98.7-3.18,2.77-2.72,4.88l1.92,8.75c-2.7.29-5.43.45-8.17.45ZM150.09,200.93l-1.92-8.73c-.46-2.1-2.42-3.49-4.51-3.29l-7.48-34.07c6.32-2.55,11.7-7.3,14.94-13.64l33.25,10.56c-.39,2.06.81,4.14,2.87,4.79l8.54,2.71c-8.94,20.16-25.83,34.91-45.7,41.66Z"/>
      </g>
    </g>
  </g>
</svg>